<svg width="148" height="36" viewBox="0 0 148 36" fill="none" xmlns="http://www.w3.org/2000/svg">
<path fill-rule="evenodd" clip-rule="evenodd" d="M48.6159 30.0132H47.5522V35.2462H51.1966V34.3031H48.612V30.0161L48.6159 30.0132ZM85.0252 35.2462H86.0889V30.0132H85.0252V35.2462ZM54.9743 33.0375H57.5112V32.0904H54.9743V30.9612H57.6971V30.0132H53.9145V35.2462H57.717V34.3031H54.9743V33.0365V33.0375ZM42.4833 32.1255L41.1343 30.0132H39.8678L41.9276 33.131V35.2482H42.9913V33.129L45.0302 30.0113H43.7925L42.4833 32.1255ZM7.27093 35.2433H8.32866V30.0132H7.26794V35.2462L7.27093 35.2433ZM12.324 35.2433H13.3837V33.0384H15.6244V32.0904H13.3837V30.9612H15.9396V30.0132H12.324V35.2462V35.2433ZM33.5602 30.9563H35.1865V35.2433H36.2502V30.9563H37.8766V30.0132H33.5602V30.9612V30.9563ZM20.6159 33.0384H23.1478V32.0904H20.6159V30.9612H23.3397V30.0132H19.5522V35.2462H23.3546V34.3031H20.6159V33.0365V33.0384ZM1.3013 30.0181H0.241577V35.2511H3.88598V34.3031H1.3013V30.0161V30.0181ZM30.5669 32.5708C30.399 32.4528 30.2131 32.3617 30.0162 32.3009C29.8228 32.2353 29.626 32.1797 29.4266 32.1343C29.2557 32.0945 29.0843 32.0562 28.9127 32.0193L28.852 32.0066C28.6899 31.9753 28.5311 31.9289 28.3779 31.8683C28.2726 31.8314 28.1774 31.7714 28.0995 31.6929C28.0722 31.6628 28.0513 31.6276 28.0382 31.5895C28.025 31.5513 28.0199 31.5109 28.023 31.4708C28.0205 31.3693 28.0441 31.2688 28.0916 31.1785C28.1316 31.1019 28.1934 31.0383 28.2695 30.9953C28.3563 30.9435 28.4519 30.9075 28.5518 30.8891C28.669 30.8641 28.7887 30.852 28.9087 30.8531C29.1603 30.8378 29.4098 30.9064 29.6165 31.0479C29.7088 31.1211 29.7834 31.2134 29.8349 31.3182C29.8865 31.423 29.9137 31.5376 29.9148 31.6539L29.9346 31.8361H30.9506L30.9417 31.6267C30.9406 31.3621 30.8813 31.1009 30.7677 30.8609C30.6679 30.6453 30.5169 30.4562 30.3273 30.3094C30.1398 30.164 29.9235 30.0584 29.6921 29.9996C29.2157 29.8693 28.7121 29.8693 28.2357 29.9996C28.0076 30.054 27.7923 30.1509 27.6015 30.285C27.4081 30.4139 27.2495 30.5867 27.1392 30.7888C27.018 31.0143 26.9581 31.2666 26.9652 31.5214C26.9532 31.7357 27.0006 31.9491 27.1025 32.1391C27.2044 32.329 27.3569 32.4883 27.5438 32.6C27.7158 32.7084 27.9025 32.7924 28.0985 32.8494C28.2973 32.905 28.4862 32.9566 28.685 33.0004L28.7874 33.017C28.9455 33.053 29.1026 33.0881 29.2557 33.1203C29.4155 33.1499 29.5708 33.1994 29.7179 33.2674C29.8261 33.3101 29.9227 33.3768 30.0002 33.4623C30.0594 33.5413 30.0883 33.6382 30.0818 33.736C30.086 33.849 30.0592 33.9611 30.0042 34.0605C29.9515 34.1425 29.8778 34.2097 29.7905 34.2553C29.6857 34.3126 29.5723 34.3531 29.4545 34.3752C29.1626 34.4367 28.8598 34.427 28.5727 34.3469C28.4346 34.3161 28.3047 34.2566 28.192 34.1725C28.0842 34.0957 27.9958 33.9957 27.9335 33.8802C27.8647 33.7476 27.8305 33.6003 27.8341 33.4515V33.2567H26.8092V33.4584C26.8048 33.7522 26.8669 34.0434 26.9911 34.3109C27.1085 34.5446 27.2784 34.7491 27.4881 34.9091C27.7004 35.064 27.9405 35.1784 28.1959 35.2462C28.4668 35.322 28.7473 35.3594 29.029 35.3573C29.2713 35.3562 29.5127 35.3284 29.7487 35.2745C29.9887 35.2206 30.2173 35.1267 30.4247 34.9968C30.6302 34.8645 30.8039 34.6899 30.9337 34.4853C31.0769 34.2554 31.1488 33.9897 31.1405 33.7204C31.1476 33.4796 31.0933 33.2408 30.9824 33.0258C30.8816 32.8436 30.7394 32.6866 30.5669 32.5669V32.5708ZM124.598 30.9651H126.224V35.2521H127.284V30.9651H128.914V30.0132H124.602V30.9612L124.598 30.9651ZM140.025 30.7556C139.827 30.498 139.572 30.2867 139.281 30.1369C138.957 29.9843 138.603 29.9051 138.243 29.9051C137.884 29.9051 137.53 29.9843 137.206 30.1369C136.915 30.2862 136.662 30.4976 136.466 30.7556C136.264 31.0177 136.114 31.3153 136.025 31.6325C135.929 31.9587 135.88 32.2965 135.88 32.636C135.88 32.9765 135.929 33.3153 136.025 33.6425C136.114 33.9597 136.264 34.2573 136.466 34.5194C136.664 34.7775 136.918 34.9889 137.21 35.1381C137.532 35.2927 137.887 35.3702 138.246 35.3641C138.605 35.3697 138.96 35.2909 139.281 35.1342C139.572 34.9859 139.827 34.7759 140.025 34.5194C140.225 34.2579 140.373 33.9621 140.463 33.6474C140.561 33.316 140.61 32.9724 140.608 32.6273C140.61 32.2876 140.561 31.9495 140.463 31.6237C140.374 31.3084 140.226 31.0123 140.025 30.7508V30.7556ZM139.597 32.6273C139.596 32.8545 139.567 33.0808 139.512 33.3015C139.462 33.5054 139.377 33.6997 139.262 33.8763C139.156 34.0366 139.013 34.1701 138.844 34.2661C138.66 34.3628 138.453 34.4134 138.244 34.4134C138.034 34.4134 137.828 34.3628 137.643 34.2661C137.475 34.1706 137.332 34.0369 137.227 33.8763C137.109 33.7007 137.024 33.5061 136.975 33.3015C136.922 33.0805 136.895 32.8543 136.895 32.6273C136.895 32.4019 136.922 32.1772 136.975 31.9579C137.025 31.7524 137.11 31.5566 137.227 31.3792C137.335 31.2207 137.477 31.0875 137.643 30.9895C137.827 30.8897 138.036 30.8406 138.246 30.8472C138.454 30.8409 138.66 30.8901 138.842 30.9895C139.009 31.0881 139.151 31.2211 139.26 31.3792C139.376 31.5569 139.461 31.7525 139.51 31.9579C139.566 32.1768 139.596 32.4016 139.597 32.6273ZM131.628 35.2433H132.692V30.0132H131.628V35.2462V35.2433ZM146.609 30.3864V33.5899L144.404 30.4721L144.344 30.3854H143.339V35.2696H144.366V32.1031L146.553 35.1839L146.613 35.2715H147.636V30.3864H146.609ZM121.028 30.0132H120.029L117.966 35.2462H119.078L119.624 33.7955H121.397L121.931 35.2462H123.095L121.081 30.1447L121.028 30.0132ZM121.049 32.8475H119.98L120.519 31.3811L121.049 32.8475ZM92.9353 33.4623L90.6698 30.0132H89.6627V35.2462H90.6906V31.841L92.9314 35.2462H93.9622V30.0132H92.9373V33.4623H92.9353ZM100.771 33.4623L98.5699 30.1087L98.5093 30.0171H97.5003V35.2501H98.5272V31.84L100.773 35.2501H101.8V30.0132H100.773V33.4574L100.771 33.4623ZM109.18 30.7508C108.962 30.4899 108.689 30.2787 108.38 30.1321C108.031 29.9793 107.653 29.9004 107.271 29.9004C106.889 29.9004 106.512 29.9793 106.163 30.1321C105.855 30.2776 105.584 30.4875 105.368 30.7469C105.152 31.0071 104.987 31.3045 104.883 31.6237C104.78 31.9487 104.728 32.2871 104.728 32.6273C104.728 32.971 104.78 33.3128 104.883 33.6415C104.986 33.9604 105.15 34.2576 105.364 34.5184C105.581 34.7789 105.855 34.9886 106.165 35.1322C106.515 35.2815 106.892 35.3586 107.273 35.3586C107.655 35.3586 108.032 35.2815 108.382 35.1322C108.69 34.9895 108.961 34.7815 109.177 34.5233C109.395 34.2648 109.558 33.9668 109.658 33.6464C109.765 33.317 109.819 32.973 109.817 32.6273C109.819 32.2857 109.766 31.9459 109.659 31.6208C109.56 31.3015 109.398 31.0045 109.182 30.7469L109.18 30.7508ZM108.754 32.6273C108.754 32.8536 108.724 33.079 108.664 33.2976C108.615 33.5021 108.524 33.6949 108.398 33.8646C108.281 34.0314 108.124 34.1675 107.94 34.2612C107.733 34.3591 107.507 34.41 107.277 34.41C107.047 34.41 106.82 34.3591 106.613 34.2612C106.43 34.1661 106.272 34.0303 106.152 33.8646C106.029 33.6931 105.939 33.5009 105.886 33.2976C105.827 33.0775 105.797 32.8509 105.796 32.6234C105.797 32.3986 105.825 32.1748 105.882 31.957C105.937 31.7496 106.03 31.5537 106.156 31.3782C106.284 31.2044 106.453 31.0628 106.647 30.9652C106.842 30.8676 107.058 30.8167 107.277 30.8167C107.496 30.8167 107.711 30.8676 107.906 30.9652C108.101 31.0628 108.27 31.2044 108.398 31.3782C108.523 31.5515 108.615 31.7461 108.668 31.9521C108.726 32.1727 108.754 32.3996 108.754 32.6273ZM114.359 33.7653L113.155 30.1496L113.106 30.0113H111.97L113.83 35.2443H114.857L116.738 30.0113H115.622L114.359 33.7653Z" fill="#727171"/>
<path fill-rule="evenodd" clip-rule="evenodd" d="M116.325 1.79922C115.449 0.947853 114.265 0.471668 113.031 0.475136H97.5003C96.8891 0.473207 96.2834 0.589321 95.718 0.816846C95.1525 1.04437 94.6384 1.37885 94.2048 1.80117C93.3131 2.93279 92.833 4.32413 92.8409 5.75393V15.6139C92.8327 17.0617 93.3121 18.4717 94.2048 19.6251C94.6384 20.0474 95.1526 20.3817 95.718 20.6091C96.2835 20.8365 96.8891 20.9524 97.5003 20.9502H113.029C113.64 20.9523 114.245 20.8363 114.811 20.6089C115.376 20.3816 115.89 20.0473 116.323 19.6251C117.216 18.4718 117.696 17.0618 117.688 15.6139V5.75199C117.695 4.32207 117.215 2.93072 116.323 1.79922H116.325ZM112.76 15.0293C112.76 15.4639 112.586 15.268 112.263 15.5759C112.107 15.728 111.922 15.8484 111.719 15.9302C111.516 16.012 111.298 16.0535 111.078 16.0524H99.5472C99.1028 16.0539 98.6759 15.8825 98.3602 15.5759C98.0441 15.269 97.8701 15.4649 97.8701 15.0293V6.94259C97.8697 6.72864 97.9128 6.51676 97.997 6.31935C98.0811 6.12194 98.2046 5.94297 98.3602 5.79291C98.6759 5.48623 99.1027 5.31457 99.5472 5.3155H111.085C111.305 5.31466 111.523 5.3564 111.726 5.43833C111.929 5.52026 112.114 5.64076 112.27 5.79291C112.427 5.94219 112.552 6.12087 112.637 6.31836C112.723 6.51584 112.767 6.72811 112.767 6.94259V15.0293H112.76ZM147.46 4.9891C147.462 4.39473 147.342 3.80611 147.107 3.25793C146.873 2.70975 146.529 2.21311 146.095 1.79727C145.181 0.943923 143.965 0.47018 142.702 0.475136H121.719V20.9492H126.647V6.93479C126.646 6.72048 126.69 6.50826 126.774 6.31052C126.858 6.11278 126.982 5.9335 127.138 5.78316C127.453 5.47784 127.879 5.30757 128.323 5.30965H129.933C130.377 5.30725 130.803 5.47757 131.118 5.78316C131.275 5.93292 131.4 6.11196 131.485 6.30974C131.571 6.50752 131.615 6.72004 131.615 6.93479V20.9492H136.569V6.93479C136.569 6.72001 136.613 6.50742 136.698 6.30961C136.784 6.1118 136.909 5.93278 137.066 5.78316C137.382 5.47779 137.808 5.30752 138.252 5.30965H140.86C141.304 5.30725 141.73 5.47757 142.045 5.78316C142.203 5.93278 142.328 6.1118 142.413 6.30961C142.498 6.50742 142.542 6.72001 142.542 6.93479V20.9492H147.47V4.9891H147.46ZM68.9952 5.74906C68.9877 4.31975 69.4681 2.92904 70.3601 1.79825C71.2857 0.94399 72.5105 0.4704 73.7818 0.475136H89.8218V5.31257H75.6299C75.4089 5.31098 75.1898 5.35217 74.9851 5.43376C74.7804 5.51535 74.5941 5.63574 74.437 5.78803C74.2813 5.93808 74.1577 6.11703 74.0733 6.31443C73.989 6.51183 73.9457 6.72372 73.9459 6.93772V15.0323C73.9459 15.4658 74.1218 15.27 74.437 15.5779C74.594 15.7304 74.7802 15.851 74.9849 15.9328C75.1896 16.0145 75.4088 16.0558 75.6299 16.0543H89.8238V20.9512H73.7818C72.5108 20.9566 71.2863 20.4824 70.3621 19.6271C69.4691 18.4737 68.9893 17.0637 68.9972 15.6159V5.74809L68.9952 5.74906ZM43.1842 20.9483H28.7974C28.2033 20.9494 27.6152 20.8326 27.0684 20.6049C26.5217 20.3771 26.0277 20.0432 25.6162 19.6232C24.7205 18.4119 24.2424 16.9521 24.2513 15.4561V0.475136H29.2438V14.8744C29.2438 15.3109 29.4177 15.1131 29.7348 15.422C30.0506 15.7269 30.4766 15.8968 30.9198 15.8945H43.1881V20.9483H43.1842ZM0.375809 0.475136H21.2521V5.26483H7.37931C6.93596 5.26285 6.50988 5.43312 6.19433 5.73834C6.03924 5.86591 5.91441 6.02511 5.82856 6.20483C5.74272 6.38455 5.69791 6.58047 5.69728 6.77891V7.52522C5.69733 7.74001 5.74134 7.9526 5.82672 8.15041C5.9121 8.34822 6.0371 8.52724 6.19433 8.67686C6.5099 8.98217 6.93589 9.15274 7.37931 9.15134H20.5741V13.0729H7.37931C7.15947 13.0716 6.94155 13.1131 6.73815 13.1949C6.53475 13.2766 6.34992 13.3971 6.19433 13.5494C5.87622 13.8563 5.69728 13.2902 5.69728 13.7238V14.9855C5.69728 15.421 5.87125 15.2242 6.19433 15.5331C6.50962 15.8389 6.9357 16.0099 7.37931 16.0085H21.2521V20.9502H5.0352C3.80126 20.9539 2.61631 20.4773 1.74072 19.6251C1.30719 19.2093 0.96306 18.7125 0.728635 18.1641C0.494209 17.6157 0.37424 17.0269 0.375809 16.4323V0.475136ZM45.1664 0.475136H66.0178V5.30965H52.4194C51.9757 5.30787 51.5495 5.4789 51.2344 5.78511C51.0774 5.93447 50.9525 6.11316 50.8671 6.31063C50.7818 6.50809 50.7377 6.72033 50.7374 6.93479V7.68501C50.7375 7.89979 50.7815 8.11236 50.8669 8.31016C50.9523 8.50797 51.0773 8.68699 51.2344 8.83664C51.5499 9.14214 51.976 9.31274 52.4194 9.31113H64.9671V13.1226H52.4194C52.1996 13.1214 51.9817 13.1629 51.7783 13.2446C51.5749 13.3264 51.3901 13.4469 51.2344 13.5991C50.9163 13.9069 50.7374 13.3409 50.7374 13.7735V15.0401C50.7374 15.4746 50.9124 15.2778 51.2344 15.5866C51.5496 15.8927 51.9758 16.0637 52.4194 16.0621H65.993V20.959H50.0753C48.8411 20.9627 47.6558 20.4861 46.7798 19.6339C45.81 18.4448 45.2457 16.9872 45.1664 15.4668V0.475136ZM75.9401 35.4606V31.5244C75.941 31.19 75.807 30.8688 75.5673 30.6309C75.4498 30.5133 75.3095 30.42 75.1546 30.3564C74.9998 30.2928 74.8335 30.2603 74.6656 30.2607H74.0801C73.9252 30.2609 73.7723 30.2941 73.6319 30.358C73.4914 30.4219 73.3669 30.5151 73.2669 30.6309C73.0268 30.8687 72.8924 31.1899 72.8931 31.5244V35.4606H69.9635V31.5244C69.9641 31.1899 69.8298 30.8687 69.5897 30.6309C69.3017 30.3904 68.9352 30.259 68.5568 30.2607H68.1442C67.9765 30.2602 67.8103 30.2927 67.6556 30.3563C67.5009 30.4199 67.3608 30.5133 67.2436 30.6309C67.1244 30.7485 67.0301 30.8879 66.966 31.0412C66.9018 31.1945 66.8691 31.3587 66.8698 31.5244V35.4606H63.9799V27.7791H78.8409V35.4606H75.9401Z" fill="#014099"/>
</svg>
